# xmcd
#
# Track frame offsets: 
#        150
#        17093
#        30078
#        46900
#        59256
#        73885
#        89744
#        104873
#        129845
#        142676
#        158405
#        172707
#        184767
#
# Disc length: 2625 seconds
#
# Revision: 0
# Processed by: cddbd v1.5.2PL0 Copyright (c) Steve Scherf et al.
# Submitted via: ExactAudioCopy v1.3
#
DISCID=9f0a3f0d
DTITLE=Sam Rocket And His Blues Prisoners - Caught In The Groove
DYEAR=2018
DGENRE=Blues
TTITLE0=Caught In The Groove
TTITLE1=I Can't Understand It
TTITLE2=She Walks Right In
TTITLE3=One Track Love
TTITLE4=Flatfoot Sam
TTITLE5=I'm Not Doin' Alright
TTITLE6=Quiet Whiskey
TTITLE7=Beer Drinking Woman
TTITLE8=Big Mamou
TTITLE9=I Don't Care Who Knows
TTITLE10=It's Love Baby 24 Hours of The Day
TTITLE11=A Letter To My Girlfriend
TTITLE12=The Walk
EXTD=
EXTT0=
EXTT1=
EXTT2=
EXTT3=
EXTT4=
EXTT5=
EXTT6=
EXTT7=
EXTT8=
EXTT9=
EXTT10=
EXTT11=
EXTT12=
PLAYORDER=
